<svg width="228.000000" height="70.000000" viewBox="0 0 228 70" fill="none" xmlns="http://www.w3.org/2000/svg" xmlns:xlink="http://www.w3.org/1999/xlink">
	<desc>
			Created with Pixso.
	</desc>
	<defs>
		<linearGradient id="paint_linear_642_719_0" x1="20.052986" y1="-0.000042" x2="20.052986" y2="70.000145" gradientUnits="userSpaceOnUse">
			<stop stop-color="#239738"/>
			<stop offset="1.000000" stop-color="#19611F"/>
		</linearGradient>
		<linearGradient id="paint_linear_642_720_0" x1="27.166538" y1="36.048428" x2="27.166538" y2="45.746201" gradientUnits="userSpaceOnUse">
			<stop stop-color="#239738"/>
			<stop offset="1.000000" stop-color="#19611F"/>
		</linearGradient>
		<linearGradient id="paint_linear_642_721_0" x1="7.166377" y1="32.934044" x2="7.166377" y2="44.037720" gradientUnits="userSpaceOnUse">
			<stop stop-color="#239738"/>
			<stop offset="1.000000" stop-color="#19611F"/>
		</linearGradient>
		<linearGradient id="paint_linear_642_722_0" x1="20.105026" y1="34.021095" x2="20.105026" y2="49.332203" gradientUnits="userSpaceOnUse">
			<stop stop-color="#65AB31"/>
			<stop offset="1.000000" stop-color="#287531"/>
		</linearGradient>
		<linearGradient id="paint_linear_642_723_0" x1="12.886006" y1="10.045752" x2="12.886006" y2="26.294024" gradientUnits="userSpaceOnUse">
			<stop stop-color="#9FFF2A"/>
			<stop offset="0.335900" stop-color="#7EE223"/>
			<stop offset="1.000000" stop-color="#40AC15"/>
		</linearGradient>
		<linearGradient id="paint_linear_642_724_0" x1="32.886456" y1="12.460924" x2="32.886456" y2="28.959709" gradientUnits="userSpaceOnUse">
			<stop stop-color="#9FFF2A"/>
			<stop offset="0.335900" stop-color="#7EE223"/>
			<stop offset="1.000000" stop-color="#40AC15"/>
		</linearGradient>
		<linearGradient id="paint_linear_642_725_0" x1="20.073338" y1="5.976189" x2="20.073338" y2="31.507633" gradientUnits="userSpaceOnUse">
			<stop stop-color="#9FFF2A"/>
			<stop offset="1.000000" stop-color="#A8E910"/>
		</linearGradient>
	</defs>
	<path id="polygon8" d="M0.105469 32.9341L14.4385 70L40 37.1922L25.7725 0L0.105469 32.9341Z" fill-rule="nonzero" fill="url(#paint_linear_642_719_0)"/>
	<path id="polygon15" d="M29.543 36.0485L14.333 70L40 37.1921L29.543 36.0485Z" fill-rule="nonzero" fill="url(#paint_linear_642_720_0)"/>
	<path id="polygon22" d="M0 32.9341L14.333 70L10.6035 34.0209L0 32.9341Z" fill-rule="nonzero" fill="url(#paint_linear_642_721_0)"/>
	<path id="polygon29" d="M14.333 70L29.6064 36.0553L10.6035 34.0209L14.333 70Z" fill-rule="nonzero" fill="url(#paint_linear_642_722_0)"/>
	<path id="polygon38" d="M10.6035 34.0209L25.7715 0L0 32.9341L10.6035 34.0209Z" fill-rule="nonzero" fill="url(#paint_linear_642_723_0)"/>
	<path id="polygon47" d="M40 37.1921L25.7725 0L29.543 36.0485L40 37.1921Z" fill-rule="nonzero" fill="url(#paint_linear_642_724_0)"/>
	<path id="polygon54" d="M25.7725 0L10.6035 34.0209L29.543 36.0485L25.7725 0Z" fill-rule="nonzero" fill="url(#paint_linear_642_725_0)"/>
	<path id="[название портала]" d="M62.1046 49.6445Q58.6183 49.6445 55.3175 48.8633Q52.0167 48.082 49.8976 46.7637L52.9445 39.8789Q54.9366 41.041 57.4171 41.7441Q59.8976 42.4375 62.1827 42.4375Q64.1359 42.4375 64.9757 42.0566Q65.8156 41.6758 65.8156 40.9238Q65.8156 40.0352 64.712 39.5957Q63.6183 39.1562 61.0988 38.6387Q57.8566 37.9648 55.6984 37.1836Q53.5402 36.4023 51.9386 34.625Q50.337 32.8379 50.337 29.8008Q50.337 27.1641 51.8116 25.0059Q53.296 22.8379 56.2355 21.5977Q59.1847 20.3574 63.3839 20.3574Q66.2648 20.3574 69.0382 20.9824Q71.8214 21.5977 73.9406 22.7988L71.0988 29.6445Q66.9777 27.5645 63.296 27.5645Q59.6632 27.5645 59.6632 29.3223Q59.6632 30.1621 60.7374 30.582Q61.8214 31.002 64.3019 31.4805Q67.4952 32.0762 69.6925 32.8574Q71.8995 33.6387 73.5206 35.4062Q75.1417 37.1641 75.1417 40.2012Q75.1417 42.8379 73.6573 44.9766Q72.1827 47.1152 69.2433 48.3848Q66.3038 49.6445 62.1046 49.6445ZM77.662 27.1152L86.6952 27.1152L86.6952 49L77.662 49L77.662 27.1152ZM82.1737 25.3574Q79.7323 25.3574 78.2284 24.0586Q76.7342 22.7598 76.7342 20.7578Q76.7342 18.7559 78.2284 17.457Q79.7323 16.1582 82.1737 16.1582Q84.6541 16.1582 86.1288 17.3984Q87.6131 18.6387 87.6131 20.6016Q87.6131 22.6816 86.1288 24.0195Q84.6541 25.3574 82.1737 25.3574ZM119.657 26.7246Q123.622 26.7246 125.995 29.166Q128.378 31.5977 128.378 36.5195L128.378 49L119.345 49L119.345 38.082Q119.345 34.3223 116.903 34.3223Q115.624 34.3223 114.843 35.2793Q114.061 36.2363 114.061 38.3164L114.061 49L105.018 49L105.018 38.082Q105.018 34.3223 102.577 34.3223Q101.298 34.3223 100.516 35.2793Q99.7352 36.2363 99.7352 38.3164L99.7352 49L90.702 49L90.702 27.1152L99.2957 27.1152L99.2957 29.1562Q101.737 26.7246 105.497 26.7246Q107.704 26.7246 109.462 27.5449Q111.22 28.3555 112.343 30.0352Q113.661 28.4434 115.536 27.584Q117.421 26.7246 119.657 26.7246ZM140.857 49.4004Q138.064 49.4004 135.339 48.8047Q132.624 48.1992 130.945 47.2422L133.415 41.2754Q134.939 42.2031 137.019 42.7207Q139.099 43.2383 141.062 43.2383Q142.624 43.2383 143.239 42.9844Q143.864 42.7207 143.864 42.2031Q143.864 41.6758 143.083 41.4805Q142.302 41.2754 140.544 41.0801Q137.859 40.7578 135.974 40.2598Q134.099 39.7617 132.673 38.3262Q131.257 36.8809 131.257 34.1953Q131.257 32.0762 132.536 30.3965Q133.816 28.7168 136.355 27.7207Q138.904 26.7246 142.458 26.7246Q144.939 26.7246 147.321 27.1836Q149.704 27.6426 151.384 28.5215L148.904 34.4785Q146.023 32.877 142.575 32.877Q139.616 32.877 139.616 33.9219Q139.616 34.4395 140.417 34.6641Q141.218 34.8789 142.937 35.084Q145.622 35.3965 147.478 35.9238Q149.343 36.4414 150.759 37.8867Q152.185 39.3223 152.185 41.998Q152.185 44.0391 150.896 45.7188Q149.616 47.3984 147.058 48.4043Q144.499 49.4004 140.857 49.4004ZM155.175 21.002L164.619 21.002L164.619 41.6758L177.255 41.6758L177.255 49L155.175 49L155.175 21.002ZM179.582 27.1152L188.615 27.1152L188.615 49L179.582 49L179.582 27.1152ZM184.094 25.3574Q181.652 25.3574 180.148 24.0586Q178.654 22.7598 178.654 20.7578Q178.654 18.7559 180.148 17.457Q181.652 16.1582 184.094 16.1582Q186.574 16.1582 188.049 17.3984Q189.533 18.6387 189.533 20.6016Q189.533 22.6816 188.049 24.0195Q186.574 25.3574 184.094 25.3574ZM207.222 26.7246Q210.102 26.7246 212.515 28.1016Q214.936 29.4785 216.352 32.0664Q217.778 34.6445 217.778 38.043Q217.778 41.4414 216.352 44.0391Q214.936 46.6367 212.515 48.0234Q210.102 49.4004 207.222 49.4004Q203.179 49.4004 201.216 47.2031L201.216 49L192.622 49L192.622 19.3223L201.655 19.3223L201.655 28.5996Q203.579 26.7246 207.222 26.7246ZM205.063 42.3594Q206.616 42.3594 207.612 41.2266Q208.618 40.084 208.618 38.043Q208.618 36.002 207.612 34.8789Q206.616 33.7559 205.063 33.7559Q203.501 33.7559 202.495 34.8789Q201.499 36.002 201.499 38.043Q201.499 40.084 202.495 41.2266Q203.501 42.3594 205.063 42.3594Z" fill-rule="evenodd" fill="#000000"/>
</svg>
